# xmcd
#
# Track frame offsets:
#	150
#	14282
#	31970
#	49392
#	65732
#	83022
#	98250
#	116557
#	133035
#	149337
#
# Disc length: 2182 seconds
#
# Revision: 0
# Processed by: cddbd v1.4PL0 Copyright (c) Steve Scherf et al.
# Submitted via: dBpowerAMP V4.0
#
DISCID=8208840a
DTITLE=Johnny Rodriguez - Funny Things Happen To Fun Lovin' People Like Me
DYEAR=1900
DGENRE=Country
TTITLE0=One Bar At A Time
TTITLE1=I May Fall Again
TTITLE2=Funny Things Happen To Fun Lovin' People Like Me
TTITLE3=Someday I'm Going To Finish Leaving You
TTITLE4=Empty Arms Hotel
TTITLE5=Still The Same Old Fool
TTITLE6=I've Already Seen More Than I Wanna Hear
TTITLE7=Down In The Boondocks
TTITLE8=I'm Not Up To Feelin' Down
TTITLE9=Burnin' Up The Fast Lane
EXTD=
EXTT0=
EXTT1=
EXTT2=
EXTT3=
EXTT4=
EXTT5=
EXTT6=
EXTT7=
EXTT8=
EXTT9=
PLAYORDER=
